<svg width="70" height="70" viewBox="0 0 70 70" fill="none" xmlns="http://www.w3.org/2000/svg">
<path d="M70 32.8125C70 33.3927 69.7695 33.9491 69.3593 34.3593C68.9491 34.7695 68.3927 35 67.8125 35H2.1875C1.60734 35 1.05094 34.7695 0.640704 34.3593C0.230468 33.9491 0 33.3927 0 32.8125C0 32.2324 0.230468 31.676 0.640704 31.2657C1.05094 30.8555 1.60734 30.625 2.1875 30.625H9.82187L22.8102 12.7395C23.2037 12.1991 23.7159 11.7561 24.3074 11.4445C24.8989 11.1329 25.5539 10.961 26.2222 10.942C26.8904 10.9229 27.5542 11.0573 28.1624 11.3348C28.7706 11.6123 29.3072 12.0254 29.7309 12.5426L33.2445 16.6168L33.2992 16.6797C33.5028 16.9355 33.7615 17.142 34.0559 17.284C34.3504 17.426 34.6731 17.4997 35 17.4997C35.3269 17.4997 35.6496 17.426 35.9441 17.284C36.2385 17.142 36.4972 16.9355 36.7008 16.6797L36.7555 16.6168L40.2691 12.5426C40.6928 12.0254 41.2294 11.6123 41.8376 11.3348C42.4458 11.0573 43.1096 10.9229 43.7778 10.942C44.4461 10.961 45.1011 11.1329 45.6926 11.4445C46.2841 11.7561 46.7963 12.1991 47.1898 12.7395L60.1781 30.625H67.8125C68.3927 30.625 68.9491 30.8555 69.3593 31.2657C69.7695 31.676 70 32.2324 70 32.8125ZM49.2188 39.375C46.7977 39.3755 44.4618 40.2681 42.6575 41.8823C40.8531 43.4965 39.7069 45.719 39.4379 48.125H30.5621C30.2925 45.7212 29.1472 43.5008 27.3449 41.8876C25.5426 40.2743 23.2093 39.3812 20.7904 39.3785C18.3716 39.3759 16.0364 40.264 14.2305 41.8733C12.4247 43.4826 11.2746 45.7005 10.9997 48.1037C10.7248 50.5069 11.3445 52.9272 12.7403 54.9027C14.1361 56.8782 16.2105 58.2706 18.5675 58.8142C20.9245 59.3578 23.3991 59.0146 25.5192 57.8499C27.6393 56.6853 29.2563 54.7809 30.0617 52.5H39.9383C40.5398 54.2015 41.5976 55.7049 42.9959 56.8458C44.3941 57.9867 46.0792 58.7213 47.8667 58.9692C49.6543 59.2171 51.4757 58.9688 53.1317 58.2515C54.7877 57.5342 56.2146 56.3755 57.2565 54.9019C58.2984 53.4284 58.9152 51.6968 59.0395 49.8964C59.1637 48.096 58.7906 46.2961 57.9609 44.6934C57.1313 43.0907 55.877 41.7469 54.3352 40.809C52.7934 39.871 51.0234 39.375 49.2188 39.375Z" fill="url(#paint0_linear_155_314)"/>
<defs>
<linearGradient id="paint0_linear_155_314" x1="0" y1="35.0031" x2="70" y2="35.0031" gradientUnits="userSpaceOnUse">
<stop stop-color="#0C9CC5"/>
<stop offset="1" stop-color="#7A3AF9"/>
</linearGradient>
</defs>
</svg>
