<svg width="24" height="25" viewBox="0 0 24 25" fill="none" xmlns="http://www.w3.org/2000/svg">
<path d="M16.5 6.3335H13.5C12.9477 6.3335 12.5 6.78122 12.5 7.3335V10.3335H16.5C16.6137 10.331 16.7216 10.3839 16.7892 10.4754C16.8568 10.5669 16.8758 10.6855 16.84 10.7935L16.1 12.9935C16.0318 13.1954 15.8431 13.3319 15.63 13.3335H12.5V20.8335C12.5 21.1096 12.2761 21.3335 12 21.3335H9.5C9.22386 21.3335 9 21.1096 9 20.8335V13.3335H7.5C7.22386 13.3335 7 13.1096 7 12.8335V10.8335C7 10.5574 7.22386 10.3335 7.5 10.3335H9V7.3335C9 5.12436 10.7909 3.3335 13 3.3335H16.5C16.7761 3.3335 17 3.55736 17 3.8335V5.8335C17 6.10964 16.7761 6.3335 16.5 6.3335Z" fill="white"/>
</svg>
