<svg width="250" height="251" viewBox="0 0 250 251" fill="none" xmlns="http://www.w3.org/2000/svg">
<rect x="-3.05176e-05" y="0.697739" width="250" height="250" fill="white"/>
<path d="M99.8242 155.698C97.8255 155.698 96.115 155.046 94.6929 153.741C93.2707 152.437 92.5585 150.867 92.556 149.031V102.364C92.556 100.531 93.2683 98.9622 94.6929 97.6577C96.1174 96.3533 97.8279 95.7 99.8242 95.6977H150.701C152.7 95.6977 154.412 96.3511 155.836 97.6577C157.261 98.9644 157.972 100.533 157.97 102.364V149.031C157.97 150.864 157.258 152.434 155.836 153.741C154.414 155.048 152.703 155.7 150.701 155.698H99.8242ZM103.458 142.364H147.067L133.439 125.698L122.537 139.031L114.361 129.031L103.458 142.364Z" fill="#7C7979"/>
</svg>
