<svg width="24" height="25" viewBox="0 0 24 25" fill="none" xmlns="http://www.w3.org/2000/svg">
<path fill-rule="evenodd" clip-rule="evenodd" d="M16 3.3335H8C5.23858 3.3335 3 5.57208 3 8.3335V16.3335C3 19.0949 5.23858 21.3335 8 21.3335H16C18.7614 21.3335 21 19.0949 21 16.3335V8.3335C21 5.57208 18.7614 3.3335 16 3.3335ZM19.25 16.3335C19.2445 18.1261 17.7926 19.578 16 19.5835H8C6.20735 19.578 4.75549 18.1261 4.75 16.3335V8.3335C4.75549 6.54085 6.20735 5.08899 8 5.0835H16C17.7926 5.08899 19.2445 6.54085 19.25 8.3335V16.3335ZM16.75 8.5835C17.3023 8.5835 17.75 8.13578 17.75 7.5835C17.75 7.03122 17.3023 6.5835 16.75 6.5835C16.1977 6.5835 15.75 7.03122 15.75 7.5835C15.75 8.13578 16.1977 8.5835 16.75 8.5835ZM12 7.8335C9.51472 7.8335 7.5 9.84822 7.5 12.3335C7.5 14.8188 9.51472 16.8335 12 16.8335C14.4853 16.8335 16.5 14.8188 16.5 12.3335C16.5027 11.1392 16.0294 9.99307 15.1849 9.14858C14.3404 8.30409 13.1943 7.83084 12 7.8335ZM9.25 12.3335C9.25 13.8523 10.4812 15.0835 12 15.0835C13.5188 15.0835 14.75 13.8523 14.75 12.3335C14.75 10.8147 13.5188 9.5835 12 9.5835C10.4812 9.5835 9.25 10.8147 9.25 12.3335Z" fill="white"/>
</svg>
