<svg width="70" height="70" viewBox="0 0 70 70" fill="none" xmlns="http://www.w3.org/2000/svg">
<path d="M33.1133 4.31624C30.7071 4.2971 28.2598 4.76468 25.9219 5.46468C22.5176 6.48323 19.1817 8.04456 16.7754 10.5233C14.3418 13.0047 13.0211 16.7481 14.2051 20.6719L17.3907 31.3223C18.4571 29.668 19.7149 28.1367 21.1641 26.7832L18.9219 19.2637C18.211 16.9121 18.7715 15.5176 20.2891 13.959C21.8067 12.41 24.4454 11.0428 27.3301 10.1801C29.3125 9.58675 31.3223 9.25589 33.086 9.25589C33.8789 9.25589 34.6309 9.32561 35.2872 9.47054C37.4063 9.93401 38.6368 10.7899 39.3477 13.1483L41.5899 20.6719C43.5586 21.0137 45.459 21.5879 47.25 22.3946L44.0645 11.736C42.8887 7.80667 39.7305 5.40862 36.3399 4.66761C35.2871 4.43382 34.2071 4.32581 33.1133 4.31624ZM37.7618 22.7637C35.6426 22.75 33.4961 23.0371 31.3633 23.6797C20.002 27.0703 13.5598 39.0059 16.9668 50.3809C20.3711 61.7422 32.293 68.1817 43.668 64.7774C55.0293 61.3731 61.4688 49.4512 58.0645 38.0762C55.3028 28.834 46.9082 22.8594 37.7618 22.7637ZM37.3379 31.6504C42.8204 31.5684 47.92 35.1231 49.5606 40.6192C51.5567 47.2637 47.7559 54.291 41.125 56.2735C34.4805 58.2696 27.4532 54.4688 25.4707 47.8379C23.4747 41.1934 27.2754 34.166 33.9063 32.17C35.0547 31.8282 36.2032 31.6641 37.3379 31.6504ZM37.6387 34.0977C37.0371 34.0977 36.4219 34.1524 35.8067 34.2617L37.0645 38.418L34.7129 39.1289L33.4688 34.959C31.7325 35.711 30.2969 36.9004 29.2579 38.3633L33.2364 40.5098L32.0606 42.6836L28.0821 40.5508C27.4395 42.2188 27.2207 44.0645 27.5489 45.9239L31.7461 44.666L32.4434 47.0313L28.2461 48.2891C30.2149 52.8008 35.1641 55.2754 40.0176 54.0313L35.6016 47.7422L41.043 46.1153L40.8106 53.7989C45.5411 52.1719 48.3164 47.3594 47.4825 42.5332L43.2852 43.7774L42.5879 41.4258L46.7852 40.168C46.0332 38.4317 44.8301 37.0098 43.3672 35.9707L41.2071 39.9492L39.0469 38.7735L41.2071 34.795C40.086 34.3575 38.8829 34.1114 37.6387 34.0977Z" fill="url(#paint0_linear_155_307)"/>
<defs>
<linearGradient id="paint0_linear_155_307" x1="13.7649" y1="35.0016" x2="58.9747" y2="35.0016" gradientUnits="userSpaceOnUse">
<stop stop-color="#0C9CC5"/>
<stop offset="1" stop-color="#7A3AF9"/>
</linearGradient>
</defs>
</svg>
