<svg width="203" height="50" viewBox="0 0 203 50" fill="none" xmlns="http://www.w3.org/2000/svg">
<g opacity="0.5">
<path d="M2.0625 37.0814L2.0625 12.3605L14.4229 19.2274V30.2831L24.3113 35.8453L34.1996 30.2831V19.2274L46.5601 12.3605V37.0814L24.3113 49.4417L2.0625 37.0814Z" fill="#111112"/>
<path fill-rule="evenodd" clip-rule="evenodd" d="M8.2427 15.7939L2.06247 12.3604L24.3113 0L46.5601 12.3604L40.3799 15.7939V33.9912L24.3113 43.2616L8.24269 33.9912L8.2427 15.7939ZM39.7104 16.1659L34.1996 19.2274V19.1587L24.3113 13.5964L14.4229 19.1587V19.2274L8.91221 16.1659V33.6109L24.3113 42.495L39.7104 33.6109V16.1659Z" fill="url(#paint0_linear_136_60)"/>
<path d="M58.4063 35.1276V14.3621H62.3221V31.5677H71.815V35.1276H58.4063Z" fill="#111112"/>
<path d="M80.2692 35.5429C78.8058 35.5429 77.4907 35.2463 76.3238 34.6529C75.157 34.0596 74.2374 33.1993 73.565 32.0721C72.8925 30.9449 72.5563 29.5901 72.5563 28.008V27.5333C72.5563 25.9512 72.8925 24.5964 73.565 23.4692C74.2374 22.342 75.157 21.4817 76.3238 20.8884C77.4907 20.295 78.8058 19.9984 80.2692 19.9984C81.7328 19.9984 83.0479 20.295 84.2148 20.8884C85.3816 21.4817 86.3012 22.342 86.9736 23.4692C87.6459 24.5964 87.9823 25.9512 87.9823 27.5333V28.008C87.9823 29.5901 87.6459 30.9449 86.9736 32.0721C86.3012 33.1993 85.3816 34.0596 84.2148 34.6529C83.0479 35.2463 81.7328 35.5429 80.2692 35.5429ZM80.2692 32.2204C81.4163 32.2204 82.3657 31.8546 83.1171 31.1228C83.8687 30.3713 84.2444 29.3033 84.2444 27.9189V27.6224C84.2444 26.238 83.8687 25.1799 83.1171 24.4482C82.3854 23.6967 81.4361 23.3209 80.2692 23.3209C79.1223 23.3209 78.1729 23.6967 77.4215 24.4482C76.6699 25.1799 76.2942 26.238 76.2942 27.6224V27.9189C76.2942 29.3033 76.6699 30.3713 77.4215 31.1228C78.1729 31.8546 79.1223 32.2204 80.2692 32.2204Z" fill="#111112"/>
<path d="M89.3855 27.83V27.3554C89.3855 25.8128 89.692 24.4976 90.3051 23.4099C90.9182 22.3024 91.7291 21.4618 92.7376 20.8884C93.7661 20.295 94.8834 19.9984 96.0897 19.9984C97.4346 19.9984 98.4532 20.2358 99.1453 20.7104C99.8375 21.185 100.342 21.6795 100.658 22.1937H101.192V20.4137H104.871V37.7381C104.871 38.7467 104.574 39.5476 103.981 40.141C103.387 40.7541 102.596 41.0607 101.607 41.0607H91.7587V37.7975H100.302C100.856 37.7975 101.133 37.5008 101.133 36.9075V33.0807H100.599C100.401 33.3971 100.124 33.7234 99.7683 34.0596C99.4122 34.376 98.9376 34.643 98.3443 34.8607C97.7511 35.0782 96.9995 35.187 96.0897 35.187C94.8834 35.187 93.7661 34.9001 92.7376 34.3266C91.7291 33.7333 90.9182 32.8928 90.3051 31.8051C89.692 30.6976 89.3855 29.3726 89.3855 27.83ZM97.1578 31.9238C98.3047 31.9238 99.2639 31.5579 100.035 30.8262C100.807 30.0945 101.192 29.066 101.192 27.741V27.4443C101.192 26.0995 100.807 25.0712 100.035 24.3592C99.2837 23.6275 98.3246 23.2616 97.1578 23.2616C96.0107 23.2616 95.0515 23.6275 94.2803 24.3592C93.509 25.0712 93.1233 26.0995 93.1233 27.4443V27.741C93.1233 29.066 93.509 30.0945 94.2803 30.8262C95.0515 31.5579 96.0107 31.9238 97.1578 31.9238Z" fill="#111112"/>
<path d="M114.681 35.5429C113.217 35.5429 111.902 35.2463 110.735 34.6529C109.568 34.0596 108.649 33.1993 107.976 32.0721C107.304 30.9449 106.968 29.5901 106.968 28.008V27.5333C106.968 25.9512 107.304 24.5964 107.976 23.4692C108.649 22.342 109.568 21.4817 110.735 20.8884C111.902 20.295 113.217 19.9984 114.681 19.9984C116.144 19.9984 117.459 20.295 118.626 20.8884C119.793 21.4817 120.713 22.342 121.385 23.4692C122.058 24.5964 122.394 25.9512 122.394 27.5333V28.008C122.394 29.5901 122.058 30.9449 121.385 32.0721C120.713 33.1993 119.793 34.0596 118.626 34.6529C117.459 35.2463 116.144 35.5429 114.681 35.5429ZM114.681 32.2204C115.828 32.2204 116.777 31.8546 117.529 31.1228C118.28 30.3713 118.656 29.3033 118.656 27.9189V27.6224C118.656 26.238 118.28 25.1799 117.529 24.4482C116.797 23.6967 115.848 23.3209 114.681 23.3209C113.534 23.3209 112.584 23.6967 111.833 24.4482C111.081 25.1799 110.706 26.238 110.706 27.6224V27.9189C110.706 29.3033 111.081 30.3713 111.833 31.1228C112.584 31.8546 113.534 32.2204 114.681 32.2204Z" fill="#111112"/>
<path d="M124.509 35.1276V20.4136H128.247V35.1276H124.509ZM126.378 18.6931C125.705 18.6931 125.132 18.4756 124.657 18.0405C124.202 17.6053 123.975 17.0318 123.975 16.3199C123.975 15.608 124.202 15.0344 124.657 14.5993C125.132 14.1643 125.705 13.9467 126.378 13.9467C127.07 13.9467 127.644 14.1643 128.098 14.5993C128.553 15.0344 128.781 15.608 128.781 16.3199C128.781 17.0318 128.553 17.6053 128.098 18.0405C127.644 18.4756 127.07 18.6931 126.378 18.6931Z" fill="#111112"/>
<path d="M131.054 41.0607V20.4137H134.733V22.1937H135.267C135.602 21.6201 136.126 21.1158 136.839 20.6807C137.551 20.2258 138.569 19.9984 139.894 19.9984C141.081 19.9984 142.179 20.295 143.186 20.8884C144.196 21.4618 145.006 22.3122 145.619 23.4396C146.233 24.5668 146.539 25.9314 146.539 27.5333V28.008C146.539 29.6099 146.233 30.9745 145.619 32.1017C145.006 33.2291 144.196 34.0893 143.186 34.6826C142.179 35.2562 141.081 35.5429 139.894 35.5429C139.004 35.5429 138.252 35.4341 137.639 35.2166C137.046 35.0188 136.561 34.7617 136.186 34.4453C135.83 34.1091 135.543 33.7729 135.326 33.4367H134.792V41.0607H131.054ZM138.767 32.2797C139.934 32.2797 140.893 31.9138 141.644 31.1821C142.415 30.4307 142.801 29.3429 142.801 27.9189V27.6224C142.801 26.1984 142.415 25.1205 141.644 24.3888C140.873 23.6374 139.914 23.2616 138.767 23.2616C137.619 23.2616 136.66 23.6374 135.889 24.3888C135.118 25.1205 134.733 26.1984 134.733 27.6224V27.9189C134.733 29.3429 135.118 30.4307 135.889 31.1821C136.66 31.9138 137.619 32.2797 138.767 32.2797Z" fill="#111112"/>
<path d="M154.747 35.5429C152.829 35.5429 151.256 35.1276 150.03 34.297C148.805 33.4663 148.063 32.2797 147.805 30.7371L151.247 29.8472C151.385 30.5393 151.613 31.0833 151.929 31.4788C152.265 31.8743 152.671 32.161 153.146 32.3391C153.639 32.4972 154.173 32.5764 154.747 32.5764C155.617 32.5764 156.26 32.428 156.676 32.1314C157.09 31.815 157.298 31.4293 157.298 30.9745C157.298 30.5196 157.101 30.1735 156.705 29.9362C156.31 29.6791 155.677 29.4714 154.806 29.3133L153.976 29.1649C152.947 28.9671 152.008 28.7001 151.158 28.3639C150.308 28.008 149.625 27.5234 149.11 26.9104C148.597 26.2972 148.339 25.5062 148.339 24.5371C148.339 23.0737 148.873 21.9563 149.942 21.185C151.009 20.3939 152.414 19.9984 154.154 19.9984C155.796 19.9984 157.16 20.3643 158.247 21.096C159.335 21.8278 160.047 22.787 160.384 23.9735L156.913 25.0414C156.755 24.29 156.429 23.7559 155.934 23.4396C155.459 23.1232 154.865 22.9649 154.154 22.9649C153.442 22.9649 152.898 23.0934 152.522 23.3505C152.147 23.5879 151.959 23.9241 151.959 24.3592C151.959 24.8338 152.156 25.1897 152.552 25.4271C152.947 25.6446 153.481 25.8128 154.154 25.9314L154.984 26.0797C156.092 26.2775 157.09 26.5445 157.981 26.8807C158.89 27.1971 159.602 27.6618 160.117 28.275C160.651 28.8683 160.918 29.6791 160.918 30.7075C160.918 32.2501 160.354 33.4466 159.226 34.297C158.119 35.1276 156.626 35.5429 154.747 35.5429Z" fill="#111112"/>
<path d="M168.464 35.3649C167.318 35.3649 166.309 35.1078 165.439 34.5937C164.589 34.0596 163.926 33.3279 163.451 32.3984C162.977 31.469 162.739 30.4009 162.739 29.1946V20.4137H166.477V28.8979C166.477 30.0054 166.744 30.8361 167.279 31.3897C167.831 31.9436 168.613 32.2204 169.622 32.2204C170.768 32.2204 171.659 31.8446 172.292 31.0932C172.925 30.3219 173.24 29.254 173.24 27.8894V20.4137H176.979V35.1276H173.3V33.1994H172.767C172.529 33.6938 172.084 34.1783 171.431 34.6529C170.779 35.1276 169.789 35.3649 168.464 35.3649Z" fill="#111112"/>
<path d="M179.804 35.1276V20.4136H183.481V22.0156H184.015C184.272 21.5211 184.698 21.096 185.29 20.7399C185.884 20.3643 186.665 20.1764 187.635 20.1764C188.683 20.1764 189.523 20.384 190.156 20.7993C190.789 21.1948 191.273 21.7189 191.61 22.3715H192.143C192.48 21.7388 192.955 21.2147 193.568 20.7993C194.181 20.384 195.051 20.1764 196.179 20.1764C197.088 20.1764 197.909 20.3742 198.64 20.7697C199.392 21.1453 199.985 21.7288 200.421 22.5199C200.875 23.2911 201.102 24.2701 201.102 25.4568V35.1276H197.364V25.7238C197.364 24.9128 197.158 24.3097 196.742 23.9142C196.326 23.4989 195.743 23.2911 194.992 23.2911C194.142 23.2911 193.479 23.5681 193.004 24.1218C192.55 24.6557 192.322 25.427 192.322 26.4357V35.1276H188.584V25.7238C188.584 24.9128 188.376 24.3097 187.961 23.9142C187.546 23.4989 186.963 23.2911 186.21 23.2911C185.36 23.2911 184.698 23.5681 184.223 24.1218C183.768 24.6557 183.54 25.427 183.54 26.4357V35.1276H179.804Z" fill="#111112"/>
</g>
<defs>
<linearGradient id="paint0_linear_136_60" x1="8.24269" y1="9.61366" x2="41.6159" y2="9.61367" gradientUnits="userSpaceOnUse">
<stop stop-color="#111111"/>
<stop offset="0.307292" stop-color="#282829"/>
<stop offset="0.604167" stop-color="#181718"/>
<stop offset="1" stop-color="#181617"/>
</linearGradient>
</defs>
</svg>
