<svg width="227" height="50" viewBox="0 0 227 50" fill="none" xmlns="http://www.w3.org/2000/svg">
<g opacity="0.5" clip-path="url(#clip0_136_48)">
<path fill-rule="evenodd" clip-rule="evenodd" d="M72.0735 3.32772C72.0735 1.63334 73.462 0.259766 75.1751 0.259766H80.5782C81.7974 0.259766 82.979 0.677691 83.9217 1.4424L85.5653 2.77567L85.6064 2.81275C85.6443 2.8001 85.6823 2.78773 85.7203 2.77567C88.6857 1.83617 92.2835 1.6575 95.9556 1.6575C99.6276 1.6575 103.225 1.83617 106.191 2.77567C106.229 2.78773 106.267 2.8001 106.305 2.81275L106.346 2.77567L107.989 1.4424C108.932 0.677691 110.114 0.259766 111.333 0.259766H116.736C118.449 0.259766 119.838 1.63334 119.838 3.32772V5.22428C119.838 6.69166 119.213 8.09116 118.116 9.07945L116.79 10.2746C116.143 10.858 115.366 11.2826 114.522 11.5141L114.208 11.6001C115.437 14.5001 116.116 17.5998 116.116 20.1074C116.116 30.1944 109.806 34.5509 104.247 38.3894C99.8685 41.4124 95.9556 44.114 95.9556 49.0403C95.9556 44.114 92.0426 41.4124 87.6645 38.3894C82.1049 34.5509 75.7953 30.1944 75.7953 20.1074C75.7953 17.5998 76.4741 14.5001 77.7028 11.6001L77.3891 11.5141C76.5452 11.2826 75.7682 10.858 75.1209 10.2746L73.7949 9.07945C72.6984 8.09116 72.0735 6.69166 72.0735 5.22428V3.32772ZM99.9876 28.354C99.9876 28.8359 99.7752 29.298 99.3971 29.6388C99.0191 29.9796 98.5063 30.171 97.9715 30.171C97.5099 30.171 97.0646 30.0282 96.7082 29.7699C97.3148 31.376 98.8671 32.8979 101.228 30.4505C103.313 28.1765 101.136 23.3803 99.0146 20.5342C98.3076 19.5855 97.147 19.129 95.9556 19.129C94.7641 19.129 93.6035 19.5855 92.8965 20.5342C90.7756 23.3803 88.5985 28.1765 90.6829 30.4505C93.044 32.8979 94.5963 31.376 95.2029 29.7699C94.8465 30.0282 94.4012 30.171 93.9396 30.171C93.4048 30.171 92.892 29.9796 92.514 29.6388C92.1359 29.298 91.9235 28.8359 91.9235 28.354H99.9876ZM88.2352 14.1563H82.6189L87.0451 17.662C88.0191 18.4333 89.4428 18.1868 90.0454 17.1423C90.8064 15.8235 89.7957 14.1563 88.2352 14.1563ZM103.676 14.1563H109.292L104.866 17.662C103.892 18.4333 102.468 18.1868 101.866 17.1423C101.105 15.8235 102.115 14.1563 103.676 14.1563Z" fill="#2A2B2A"/>
<path d="M126.528 34.8126H131.504V16.0443H126.528V34.8126ZM126.528 13.1175H131.504V8.65405H126.528V13.1175Z" fill="#111110"/>
<path d="M134.71 40.9589H139.685V32.6906H139.759C140.82 34.3004 142.539 35.3614 145.173 35.3614C150.002 35.3614 153.295 31.5199 153.295 25.4467C153.295 19.5931 150.112 15.5321 145.137 15.5321C142.576 15.5321 140.82 16.7394 139.612 18.3858H139.503V16.0443H134.71V40.9589ZM144.112 31.2272C141.149 31.2272 139.576 28.9955 139.576 25.5931C139.576 22.2272 140.82 19.5565 143.929 19.5565C147.003 19.5565 148.246 22.0443 148.246 25.5931C148.246 29.1419 146.637 31.2272 144.112 31.2272Z" fill="#111110"/>
<path d="M163.221 35.3614C167.904 35.3614 171.123 33.0931 171.123 29.3248C171.123 24.9345 167.648 24.0565 164.501 23.398C161.831 22.8492 159.343 22.7028 159.343 21.0931C159.343 19.7394 160.623 19.0077 162.562 19.0077C164.684 19.0077 165.965 19.7394 166.184 21.7516H170.684C170.318 17.9833 167.574 15.5321 162.635 15.5321C158.355 15.5321 154.989 17.4711 154.989 21.5321C154.989 25.6297 158.282 26.5443 161.648 27.2028C164.209 27.715 166.587 27.898 166.587 29.6906C166.587 31.0077 165.343 31.8492 163.148 31.8492C160.916 31.8492 159.379 30.898 159.05 28.7394H154.44C154.733 32.7272 157.77 35.3614 163.221 35.3614Z" fill="#111110"/>
<path d="M190.015 34.8126V16.0443H185.039V26.8736C185.039 29.3614 183.612 31.1175 181.271 31.1175C179.149 31.1175 178.161 29.9102 178.161 27.715V16.0443H173.222V28.5565C173.222 32.6541 175.563 35.3248 179.734 35.3248C182.368 35.3248 183.832 34.337 185.112 32.6175H185.222V34.8126H190.015Z" fill="#111110"/>
<path d="M193.233 34.8126H198.209V23.9102C198.209 21.4223 199.562 19.8126 201.574 19.8126C203.404 19.8126 204.465 20.9102 204.465 23.0321V34.8126H209.44V23.9102C209.44 21.4223 210.721 19.8126 212.806 19.8126C214.635 19.8126 215.696 20.9102 215.696 23.0321V34.8126H220.672V22.1906C220.672 18.0931 218.44 15.5321 214.489 15.5321C212.111 15.5321 210.135 16.776 208.855 18.8248H208.782C207.867 16.8492 205.965 15.5321 203.587 15.5321C200.989 15.5321 199.16 16.8492 198.135 18.5687H198.026V16.0443H193.233V34.8126Z" fill="#111110"/>
<path d="M0.911148 34.8126H5.88676V8.65405H0.911148V34.8126Z" fill="#111110"/>
<path d="M18.0529 35.3614C23.87 35.3614 27.8578 31.0443 27.8578 25.4467C27.8578 19.8492 23.87 15.5321 18.0529 15.5321C12.2357 15.5321 8.24794 19.8492 8.24794 25.4467C8.24794 31.0443 12.2357 35.3614 18.0529 35.3614ZM18.0529 31.5565C14.9797 31.5565 13.2968 29.1053 13.2968 25.4467C13.2968 21.7882 14.9797 19.3004 18.0529 19.3004C21.0895 19.3004 22.809 21.7882 22.809 25.4467C22.809 29.1053 21.0895 31.5565 18.0529 31.5565Z" fill="#111110"/>
<path d="M38.4389 41.215C41.2193 41.215 43.634 40.5565 45.2071 39.0931C46.5974 37.8126 47.4389 36.0199 47.4389 33.3858V16.0443H42.6462V18.0199H42.573C41.4389 16.4467 39.7193 15.5321 37.3779 15.5321C32.6218 15.5321 29.2559 19.1175 29.2559 24.715C29.2559 30.3858 33.3535 33.6784 37.5242 33.6784C39.9023 33.6784 41.3291 32.7272 42.4267 31.4833H42.5364V33.5321C42.5364 36.0931 41.1828 37.4467 38.3657 37.4467C36.0608 37.4467 34.9998 36.5321 34.5974 35.3614H29.6584C30.1706 39.0199 33.3169 41.215 38.4389 41.215ZM38.3657 29.6906C35.8047 29.6906 34.1218 27.8248 34.1218 24.6419C34.1218 21.4955 35.8047 19.5199 38.3291 19.5199C41.3291 19.5199 42.7925 21.8614 42.7925 24.6053C42.7925 27.3858 41.512 29.6906 38.3657 29.6906Z" fill="#111110"/>
<path d="M59.5329 35.3614C65.35 35.3614 69.3378 31.0443 69.3378 25.4467C69.3378 19.8492 65.35 15.5321 59.5329 15.5321C53.7158 15.5321 49.728 19.8492 49.728 25.4467C49.728 31.0443 53.7158 35.3614 59.5329 35.3614ZM59.5329 31.5565C56.4597 31.5565 54.7768 29.1053 54.7768 25.4467C54.7768 21.7882 56.4597 19.3004 59.5329 19.3004C62.5695 19.3004 64.289 21.7882 64.289 25.4467C64.289 29.1053 62.5695 31.5565 59.5329 31.5565Z" fill="#111110"/>
<path d="M220.448 11.9468C220.448 11.1049 221.129 10.4224 221.972 10.4224H225.021C225.862 10.4224 226.545 11.1049 226.545 11.9468C226.545 12.7886 225.862 13.4712 225.021 13.4712H221.972C221.129 13.4712 220.448 12.7886 220.448 11.9468Z" fill="#111110"/>
</g>
<defs>
<clipPath id="clip0_136_48">
<rect width="226.829" height="50" fill="white" transform="translate(0.0769043)"/>
</clipPath>
</defs>
</svg>
