<svg width="224" height="50" viewBox="0 0 224 50" fill="none" xmlns="http://www.w3.org/2000/svg">
<g opacity="0.5">
<path d="M64.3628 26.0026C64.4072 25.1484 64.4072 24.2926 64.3628 23.4385H15.7103C15.7 23.6513 15.691 23.8654 15.6859 24.0795H5.49359L5.48846 24.4H0V25.041H5.48718L5.49487 25.3615H15.6859C15.691 25.5769 15.6987 25.7897 15.7115 26.0026H29.6795C29.6265 25.5773 29.5999 25.1491 29.6 24.7205H50.1128C50.1128 25.1551 50.0872 25.5833 50.0333 26.0026H64.3628ZM64.2615 22.1564H49.791C49.6785 21.7202 49.5372 21.2919 49.368 20.8744H30.3487C30.1808 21.2897 30.0385 21.7167 29.9256 22.1564H15.8103C15.8333 21.9423 15.859 21.7282 15.8872 21.5154H5.69487L5.73846 21.2026H0V20.5615H5.83974L5.89872 20.2333H16.091C16.1295 20.0192 16.1731 19.8051 16.2192 19.5923H63.8551C64.0346 20.4321 64.1718 21.2872 64.2615 22.1564ZM63.5436 18.3103H47.8641C47.4943 17.8487 47.0855 17.4198 46.6423 17.0282H33.0731C32.6308 17.4205 32.2205 17.8487 31.8513 18.3103H16.5308C16.5885 18.0962 16.65 17.8821 16.7141 17.6692H6.52179L6.63462 17.309H0V16.6667H6.84872L6.94872 16.3859H17.141C17.2179 16.1705 17.3 15.9577 17.3846 15.7449H62.6885C63.0192 16.5782 63.3051 17.4359 63.5436 18.3103ZM62.1372 14.4641H17.9359C18.0359 14.2487 18.1385 14.0359 18.2449 13.8231H8.05385L8.23462 13.4692H0V12.8282H8.58205L8.74487 12.541H18.9372C19.0615 12.3256 19.1897 12.1115 19.3205 11.9H60.7526C61.2628 12.7231 61.7269 13.5795 62.1372 14.4641ZM15.8103 27.2846H64.2628C64.1718 28.1538 64.0346 29.0103 63.8551 29.8487H48.7423C48.9795 29.4385 49.1897 29.0103 49.3692 28.5667H30.3462C30.5256 29.0103 30.7346 29.4385 30.9718 29.8487H16.2179C16.1723 29.6356 16.1296 29.4219 16.0897 29.2077H5.89872C5.87784 29.095 5.85775 28.9822 5.83846 28.8692H0V28.2282H5.73718C5.72246 28.1274 5.70836 28.0266 5.69487 27.9256H15.8872C15.8587 27.7123 15.8331 27.4986 15.8103 27.2846ZM16.5295 31.1308H63.5423C63.3051 32.0064 63.0192 32.8615 62.6885 33.6949H44.8269C45.4765 33.3343 46.0852 32.9044 46.6423 32.4128H33.0731C33.6302 32.9044 34.2388 33.3343 34.8885 33.6949H17.3846C17.3005 33.4823 17.2193 33.2686 17.141 33.0538H6.94872L6.83846 32.7449H0V32.1038H6.62564C6.59067 31.9934 6.55648 31.8827 6.52308 31.7718H16.7141C16.65 31.559 16.5885 31.3462 16.5295 31.1308ZM17.9359 34.9769H62.1372C61.7273 35.8585 61.2649 36.7148 60.7526 37.541H19.3205C19.189 37.3293 19.0608 37.1156 18.9359 36.9H8.74487C8.68077 36.7897 8.61795 36.6795 8.55641 36.568H0V35.9269H8.21154L8.05385 35.6192H18.2462C18.1396 35.4071 18.0362 35.1934 17.9359 34.9782V34.9769ZM21.6923 40.7462C21.8808 40.9641 22.0744 41.1769 22.2718 41.3872H57.8013C58.558 40.5809 59.2591 39.7242 59.9 38.8231H20.1731C20.3269 39.0397 20.4833 39.2538 20.6449 39.4641H10.4526L10.7064 39.791H0V40.4321H11.2308C11.3192 40.5385 11.409 40.6423 11.5 40.7462H21.6923ZM25.9449 44.5923C26.2564 44.8141 26.5731 45.0282 26.8936 45.2333H53.1795C54.3595 44.4755 55.4721 43.6177 56.5051 42.6692H23.5692C23.8064 42.8872 24.0487 43.1013 24.2949 43.3103H14.1026C14.241 43.4282 14.3808 43.5436 14.5218 43.6564H0V44.2974H15.3487C15.4821 44.3974 15.6179 44.4962 15.7538 44.5923H25.9462H25.9449ZM34.941 48.5462C36.5846 48.8962 38.2885 49.0795 40.0359 49.0795C43.9513 49.0795 47.65 48.1564 50.9269 46.5154H29.1449C29.6013 46.7436 30.0641 46.9577 30.5346 47.1564H20.3423C20.5244 47.2333 20.7077 47.309 20.891 47.3821H0V48.0231H22.7244C24.9769 48.7103 27.3679 49.0795 29.8449 49.0795C31.5923 49.0795 33.2974 48.8962 34.941 48.5462ZM20.1731 10.6179H59.9C59.2592 9.71682 58.558 8.86015 57.8013 8.05385H22.2718C22.0744 8.2641 21.8808 8.47692 21.691 8.69487H11.5L11.2744 8.95897H0V9.6H10.7462C10.6474 9.72436 10.55 9.85 10.4538 9.97692H20.6449C20.4833 10.1885 20.3269 10.4026 20.1731 10.6179ZM23.5679 6.7718H56.5038C55.4713 5.82339 54.3591 4.96553 53.1795 4.20769H26.8936C26.5731 4.4141 26.2564 4.62821 25.9449 4.84872H15.7538C15.6128 4.95 15.4718 5.05128 15.3333 5.15513H0V5.79615H14.5077C14.3718 5.90641 14.2372 6.01795 14.1038 6.13077H24.2949C24.0487 6.33974 23.8064 6.55385 23.5679 6.7718ZM29.1462 2.92564H50.9282C47.5473 1.23389 43.8177 0.355833 40.0372 0.361538C38.2885 0.361538 36.5846 0.546154 34.941 0.896154C33.2657 0.540001 31.5576 0.360812 29.8449 0.361538C27.109 0.361538 24.4795 0.81282 22.0244 1.64359H0V2.28462H30.5346C30.0652 2.48362 29.6021 2.6974 29.1462 2.92564ZM142.626 0C143.468 0 144.129 0.210256 144.61 0.630769C145.112 1.03205 145.362 1.59231 145.362 2.31538C145.362 3.03718 145.112 3.60769 144.61 4.02821C144.129 4.42949 143.468 4.63077 142.626 4.63077C141.785 4.63077 141.113 4.42949 140.612 4.02821C140.131 3.60769 139.89 3.03718 139.89 2.31538C139.89 1.59359 140.131 1.03333 140.612 0.630769C141.113 0.210256 141.785 0 142.626 0ZM144.971 7.42564V20.5038C144.971 21.3462 145.112 21.9179 145.392 22.2179C145.692 22.5192 146.194 22.6692 146.895 22.6692V23.3C146.334 23.2726 145.773 23.2525 145.212 23.2397C144.44 23.1994 143.668 23.1793 142.896 23.1795C142.115 23.1795 141.323 23.2 140.522 23.2397C139.92 23.253 139.319 23.2731 138.718 23.3V22.6692C139.419 22.6692 139.91 22.5192 140.191 22.2179C140.491 21.9179 140.642 21.3462 140.642 20.5038V11.0333C140.642 10.1321 140.501 9.46923 140.221 9.05C139.96 8.60897 139.459 8.38846 138.718 8.38846V7.75641C139.359 7.81667 139.981 7.84615 140.582 7.84615C141.423 7.84615 142.205 7.81667 142.927 7.75641C143.668 7.67692 144.35 7.56667 144.971 7.42564Z" fill="#1E1E1F"/>
<path fill-rule="evenodd" clip-rule="evenodd" d="M153.432 10.1846V7.42565C152.812 7.56667 152.129 7.67693 151.388 7.75642C150.646 7.81667 149.864 7.84616 149.042 7.84616C148.441 7.84616 147.821 7.81667 147.178 7.75642V8.38847C147.9 8.38847 148.401 8.60898 148.682 9.05001C148.963 9.47052 149.103 10.1321 149.103 11.0333V26.0667C149.103 26.868 148.963 27.409 148.682 27.6897C148.422 27.9705 147.96 28.1103 147.299 28.1103V28.7423L148.892 28.6526C149.624 28.6322 150.355 28.6219 151.087 28.6218C152.109 28.6218 153.072 28.6321 153.973 28.6513C154.895 28.6923 155.617 28.7218 156.138 28.741V28.1103C155.296 28.1103 154.635 27.95 154.154 27.6295C153.673 27.3295 153.432 26.7077 153.432 25.7654V22.7526C153.696 22.9731 154.006 23.1551 154.364 23.3C155.005 23.5821 155.717 23.7218 156.499 23.7218C157.562 23.7218 158.513 23.5308 159.355 23.15C160.211 22.7734 160.964 22.196 161.55 21.4667C162.171 20.7051 162.642 19.7731 162.963 18.6705C163.304 17.568 163.474 16.2859 163.474 14.8218C163.474 13.159 163.233 11.7756 162.753 10.6731C162.272 9.55 161.629 8.71924 160.828 8.17821C160.027 7.61697 159.07 7.32225 158.092 7.3359C156.929 7.3359 155.908 7.6359 155.026 8.23718C154.332 8.70513 153.801 9.35385 153.432 10.1859V10.1846ZM153.432 11.218V22.1167C153.599 22.3141 153.8 22.4782 154.033 22.609C154.414 22.809 154.845 22.909 155.327 22.909C156.228 22.909 156.94 22.609 157.462 22.0077C157.982 21.3859 158.353 20.5244 158.573 19.4218C158.814 18.3 158.935 16.9667 158.935 15.4231C158.935 13.7 158.824 12.3462 158.604 11.3641C158.383 10.3821 158.082 9.68077 157.701 9.26026C157.321 8.83847 156.86 8.62821 156.318 8.62821C155.597 8.62821 154.936 8.91026 154.335 9.47052C153.882 9.90642 153.581 10.4897 153.432 11.218Z" fill="#1E1E1F"/>
<path d="M170.377 7.33586C171.219 7.33586 171.95 7.44612 172.572 7.66663C173.213 7.86663 173.674 8.06791 173.955 8.26791C174.636 8.72945 175.058 8.42817 175.218 7.36535H175.849C175.809 7.92689 175.778 8.61919 175.759 9.43971C175.738 10.2423 175.728 11.3141 175.728 12.6577H175.097C174.995 11.9059 174.803 11.1691 174.526 10.4628C174.27 9.77728 173.847 9.16706 173.294 8.68843C172.772 8.22689 172.091 7.99612 171.249 7.99612C170.668 7.99612 170.177 8.16791 169.776 8.50894C169.374 8.82945 169.174 9.29996 169.174 9.92176C169.174 10.523 169.355 11.0538 169.715 11.5153C170.077 11.9564 170.537 12.3871 171.099 12.8077C171.679 13.2089 172.281 13.6397 172.903 14.1C173.564 14.6012 174.165 15.1025 174.706 15.6038C175.225 16.0572 175.662 16.5962 175.999 17.1974C176.321 17.7782 176.481 18.4692 176.481 19.2718C176.481 20.173 176.219 20.9641 175.699 21.6461C175.177 22.3077 174.486 22.8192 173.624 23.1795C172.782 23.541 171.84 23.7218 170.799 23.7218C170.252 23.728 169.706 23.6673 169.174 23.541C168.758 23.4371 168.354 23.2857 167.972 23.0897C167.712 22.9692 167.46 22.8589 167.221 22.7589C167.016 22.6464 166.805 22.5463 166.588 22.4589C166.388 22.3987 166.208 22.4679 166.047 22.6692C165.908 22.8692 165.797 23.15 165.717 23.5102H165.086C165.126 22.8692 165.156 22.0871 165.176 21.1653C165.196 20.2436 165.206 19.0205 165.206 17.4987H165.837C165.958 18.5807 166.178 19.5423 166.499 20.3833C166.819 21.2064 167.25 21.8577 167.791 22.3384C168.353 22.8 169.054 23.0307 169.896 23.0307C170.237 23.0307 170.568 22.9602 170.888 22.8192C171.209 22.6782 171.469 22.4474 171.671 22.1269C171.891 21.8064 172.001 21.3961 172.001 20.8961C172.001 20.0128 171.71 19.2807 171.128 18.7C170.568 18.1192 169.846 17.4871 168.964 16.8064C168.323 16.2846 167.712 15.7743 167.131 15.273C166.592 14.7803 166.126 14.2135 165.747 13.5897C165.381 12.9493 165.194 12.2221 165.206 11.4846C165.206 10.5833 165.446 9.82176 165.927 9.19996C166.418 8.57169 167.074 8.09265 167.822 7.81663C168.635 7.4939 169.502 7.33067 170.377 7.33586ZM207.699 7.66663C207.177 7.44612 206.496 7.33586 205.654 7.33586C204.711 7.32629 203.781 7.55376 202.949 7.9974C202.127 8.41791 201.476 9.12945 200.994 10.132V7.42689C200.373 7.56663 199.691 7.67689 198.95 7.75637C198.228 7.81663 197.446 7.84612 196.605 7.84612C196.004 7.84612 195.382 7.81663 194.741 7.75637V8.38843C195.482 8.38843 195.983 8.60894 196.244 9.04996C196.524 9.47048 196.664 10.132 196.664 11.0333V20.5038C196.664 21.3461 196.514 21.9179 196.214 22.2179C195.933 22.5192 195.442 22.6692 194.741 22.6692V23.3C195.342 23.273 195.943 23.253 196.545 23.2397C197.326 23.2001 198.108 23.1801 198.89 23.1795C199.591 23.1795 200.273 23.2 200.933 23.2397C201.615 23.2602 202.117 23.2807 202.437 23.3V22.6692C201.917 22.6692 201.545 22.5192 201.324 22.2179C201.104 21.9179 200.994 21.3461 200.994 20.5038V12.1461C200.994 11.4846 201.124 10.8936 201.385 10.3718C201.665 9.83073 202.026 9.41022 202.467 9.11022C202.89 8.81511 203.394 8.65754 203.91 8.65894C204.372 8.65894 204.712 8.76919 204.932 8.98971C205.173 9.18971 205.333 9.48073 205.414 9.8615C205.494 10.2218 205.533 10.6525 205.533 11.1538V20.5038C205.533 21.3461 205.423 21.9179 205.203 22.2179C205.003 22.5192 204.632 22.6692 204.091 22.6692V23.3C204.451 23.2807 204.982 23.2602 205.685 23.2397C207.107 23.1586 208.532 23.1586 209.954 23.2397C210.695 23.2602 211.246 23.2807 211.606 23.3V22.6692C210.965 22.6692 210.514 22.5192 210.254 22.2179C209.994 21.9179 209.863 21.3461 209.863 20.5038V12.2795L209.862 12.1859L209.856 11.882C209.902 11.3795 210.037 10.889 210.254 10.4333C210.535 9.89099 210.895 9.46022 211.336 9.13971C211.777 8.81919 212.259 8.65894 212.779 8.65894C213.3 8.65894 213.682 8.76919 213.922 8.98971C214.182 9.18971 214.353 9.48073 214.433 9.8615C214.533 10.2218 214.583 10.6525 214.583 11.1538V20.5038C214.583 21.3461 214.473 21.9179 214.253 22.2179C214.053 22.5192 213.682 22.6692 213.14 22.6692V23.3C213.501 23.2807 214.032 23.2602 214.733 23.2397C215.444 23.1994 216.156 23.1793 216.868 23.1795C217.61 23.1795 218.362 23.2 219.123 23.2397C219.885 23.2602 220.456 23.2807 220.837 23.3V22.6692C220.136 22.6692 219.635 22.5192 219.333 22.2179C219.053 21.9179 218.913 21.3461 218.913 20.5038V12.4166C218.913 11.4141 218.842 10.6128 218.703 10.0115C218.562 9.38971 218.332 8.88971 218.01 8.50894C217.69 8.1474 217.269 7.86791 216.747 7.66663C216.227 7.44612 215.545 7.33586 214.704 7.33586C213.682 7.33586 212.719 7.54612 211.818 7.96663C210.954 8.37945 210.254 9.16663 209.717 10.3282C209.698 10.222 209.677 10.1164 209.653 10.0115C209.513 9.38971 209.282 8.88971 208.962 8.50894C208.641 8.1474 208.219 7.86791 207.699 7.66663ZM192.382 20.023V7.4256C191.76 7.56663 191.079 7.67689 190.337 7.75637C189.617 7.81663 188.835 7.84612 187.992 7.84612C187.391 7.84612 186.77 7.81663 186.128 7.75637V8.38843C186.87 8.38843 187.372 8.60894 187.632 9.04996C187.913 9.47048 188.053 10.132 188.053 11.0333V18.9102C188.053 19.5718 187.913 20.173 187.632 20.7141C187.394 21.2094 187.031 21.6344 186.579 21.9474C186.159 22.2483 185.653 22.4065 185.136 22.3987C184.636 22.3987 184.255 22.2974 183.994 22.0974C183.723 21.861 183.534 21.5458 183.453 21.1961C183.367 20.7603 183.327 20.317 183.332 19.873V7.4256C182.712 7.56663 182.029 7.67689 181.288 7.75637C180.567 7.81663 179.785 7.84612 178.944 7.84612C178.342 7.84612 177.721 7.81663 177.079 7.75637V8.38843C177.821 8.38843 178.322 8.60894 178.582 9.04996C178.863 9.47048 179.003 10.132 179.003 11.0333V18.6397C179.003 19.6218 179.073 20.4243 179.214 21.0448C179.354 21.6666 179.595 22.1679 179.935 22.5487C180.236 22.8897 180.646 23.1705 181.168 23.391C181.688 23.6102 182.371 23.7218 183.213 23.7218C184.255 23.7218 185.196 23.5102 186.038 23.0897C186.9 22.6487 187.572 21.9269 188.053 20.9256V23.6307C188.724 23.4654 189.408 23.3548 190.097 23.3C190.819 23.2397 191.6 23.2102 192.442 23.2102C193.064 23.2102 193.685 23.2397 194.306 23.3V22.6692C193.585 22.6692 193.083 22.4589 192.803 22.0371C192.522 21.5961 192.382 20.9256 192.382 20.0243V20.023Z" fill="#1E1E1F"/>
<path fill-rule="evenodd" clip-rule="evenodd" d="M134.226 8.14744C133.123 7.60642 131.84 7.3359 130.377 7.3359C128.954 7.3359 127.681 7.60642 126.559 8.14744C125.456 8.68847 124.585 9.56026 123.944 10.7628C123.322 11.9654 123.01 13.559 123.01 15.5436C123.01 17.5282 123.322 19.1205 123.942 20.3244C124.583 21.5064 125.455 22.368 126.558 22.909C127.681 23.45 128.954 23.7218 130.377 23.7218C131.84 23.7218 133.123 23.45 134.226 22.909C135.327 22.368 136.19 21.5064 136.81 20.3244C137.432 19.1218 137.742 17.5282 137.742 15.5436C137.742 13.559 137.432 11.9667 136.81 10.7628C136.19 9.56026 135.327 8.68847 134.226 8.14744ZM128.363 9.74103C128.904 8.53847 129.576 7.93719 130.377 7.93719C131.199 7.93719 131.871 8.53847 132.391 9.74103C132.932 10.9231 133.203 12.8577 133.203 15.5436C133.203 18.2295 132.932 20.1641 132.391 21.3462C131.871 22.5282 131.199 23.1205 130.377 23.1205C129.576 23.1205 128.904 22.5282 128.363 21.3462C127.822 20.1641 127.551 18.2295 127.551 15.5436C127.551 12.8577 127.821 10.9231 128.363 9.74103ZM113.206 28.9526C111.963 28.9526 110.851 28.8423 109.869 28.6218C108.908 28.4218 108.146 28.1013 107.585 27.6603C107.044 27.2385 106.773 26.718 106.773 26.0962C106.773 25.4744 107.053 24.9141 107.614 24.4128C108.176 23.9321 109.008 23.5513 110.11 23.2705L110.379 23.7513C110.035 24.0098 109.749 24.3373 109.538 24.7128C109.378 25.0744 109.297 25.4449 109.297 25.8256C109.297 26.668 109.678 27.309 110.441 27.7487C111.223 28.2103 112.274 28.441 113.597 28.441C114.499 28.441 115.301 28.3205 116.003 28.0808C116.724 27.8398 117.285 27.4782 117.686 26.9987C118.108 26.5167 118.318 25.9256 118.318 25.2244C118.318 24.6231 118.097 24.1115 117.656 23.691C117.215 23.2897 116.333 23.0898 115.01 23.0898H113.146C112.326 23.0898 111.603 23 110.982 22.8192C110.379 22.6397 109.909 22.3577 109.568 21.9769C109.228 21.5769 109.058 21.0756 109.058 20.4744C109.058 19.6321 109.388 18.891 110.05 18.2487C110.568 17.7462 111.283 17.268 112.196 16.8154C111.596 16.7408 111.007 16.5966 110.44 16.3859C109.538 16.0449 108.827 15.5231 108.306 14.8218C107.785 14.1205 107.524 13.2192 107.524 12.1167C107.524 11.0141 107.785 10.1115 108.306 9.41026C108.827 8.68847 109.538 8.16667 110.441 7.84616C111.342 7.50642 112.364 7.3359 113.506 7.3359C114.65 7.3359 115.672 7.50642 116.573 7.84744C117.168 8.0577 117.678 8.35642 118.108 8.74103C118.363 8.37308 118.673 8.04488 119.038 7.75642C119.721 7.2359 120.453 6.97437 121.233 6.97437C121.874 6.97437 122.356 7.15513 122.677 7.51667C123.018 7.85642 123.188 8.3077 123.188 8.86924C123.188 9.47052 123.027 9.92052 122.706 10.2218C122.386 10.5039 122.026 10.6436 121.624 10.6436C121.271 10.6389 120.931 10.511 120.663 10.2821C120.381 10.041 120.222 9.68078 120.182 9.20001C120.147 8.76924 120.268 8.2359 120.544 7.59744C119.959 7.84616 119.508 8.12949 119.19 8.44872C118.95 8.67983 118.741 8.94046 118.567 9.22437C118.615 9.28462 118.663 9.34744 118.708 9.41026C119.229 10.1115 119.49 11.0128 119.49 12.1154C119.49 13.218 119.229 14.1205 118.708 14.8218C118.187 15.5231 117.476 16.0449 116.573 16.3859C115.672 16.7256 114.65 16.8962 113.506 16.8962C113.335 16.8963 113.164 16.8925 112.994 16.8846C112.723 17.068 112.463 17.2628 112.214 17.468C112.06 17.5888 111.936 17.7442 111.852 17.9217C111.769 18.0991 111.728 18.2937 111.733 18.4898C111.733 19.1308 112.135 19.4513 112.936 19.4513H116.213C117.315 19.4513 118.297 19.5821 119.159 19.8423C120.041 20.1039 120.732 20.5346 121.233 21.1359C121.755 21.7167 122.015 22.4782 122.015 23.4205C122.015 24.4026 121.695 25.3141 121.054 26.1564C120.432 26.9987 119.471 27.6692 118.167 28.1705C116.864 28.6923 115.21 28.9526 113.206 28.9526ZM113.506 16.3551C114.049 16.3551 114.468 16.0551 114.769 15.4539C115.07 14.8321 115.221 13.7192 115.221 12.1167C115.221 10.5128 115.07 9.41026 114.769 8.80898C114.469 8.18719 114.049 7.87693 113.508 7.87693C112.986 7.87693 112.565 8.18719 112.245 8.80898C111.944 9.41026 111.794 10.5128 111.794 12.1167C111.794 13.7192 111.944 14.8321 112.245 15.4539C112.565 16.0551 112.986 16.3551 113.506 16.3551ZM102.881 8.14744C101.778 7.60642 100.496 7.3359 99.0333 7.3359C97.6102 7.3359 96.3372 7.60642 95.2154 8.14744C94.1128 8.68847 93.241 9.56026 92.6 10.7628C91.9782 11.9654 91.6667 13.559 91.6667 15.5436C91.6667 17.5282 91.9782 19.1205 92.5987 20.3244C93.2397 21.5064 94.1115 22.368 95.2141 22.909C96.3372 23.45 97.6102 23.7218 99.0333 23.7218C100.496 23.7218 101.779 23.45 102.881 22.909C103.983 22.368 104.845 21.5064 105.467 20.3244C106.088 19.1218 106.399 17.5282 106.399 15.5436C106.399 13.559 106.088 11.9667 105.467 10.7628C104.846 9.56026 103.983 8.68847 102.881 8.14744ZM97.0179 9.74103C97.5603 8.53847 98.2308 7.93719 99.0333 7.93719C99.8538 7.93719 100.526 8.53847 101.046 9.74103C101.588 10.9231 101.859 12.8577 101.859 15.5436C101.859 18.2295 101.588 20.1641 101.047 21.3462C100.526 22.5282 99.8551 23.1205 99.0333 23.1205C98.2308 23.1205 97.559 22.5282 97.0179 21.3462C96.4769 20.1641 96.2064 18.2295 96.2064 15.5436C96.2064 12.8577 96.4769 10.9231 97.0179 9.74103Z" fill="#1E1E1F"/>
<path d="M83.5692 2.01416V2.61672C82.8885 2.63595 82.3667 2.71544 82.0064 2.85647C81.8415 2.9123 81.6925 3.00705 81.572 3.13269C81.4515 3.25834 81.363 3.41118 81.3141 3.57826C81.1949 3.91801 81.1346 4.46031 81.1346 5.20134V20.4744C81.1346 21.0949 81.1744 21.5565 81.2551 21.8577C81.3551 22.1578 81.5359 22.3577 81.7962 22.459C82.0769 22.559 82.4885 22.609 83.0282 22.609H84.5026C85.1821 22.609 85.8244 22.4488 86.4257 22.1283C87.0282 21.8078 87.568 21.3565 88.0487 20.7744C88.5558 20.128 88.9617 19.4082 89.2526 18.6398C89.5731 17.8193 89.8128 16.9065 89.9731 15.9039H90.6654C90.6051 16.586 90.5756 17.468 90.5756 18.5501C90.5756 19.0116 90.5846 19.6821 90.6051 20.5642C90.6256 21.4462 90.6846 22.359 90.7846 23.3001C89.633 23.2576 88.4806 23.2375 87.3282 23.2398C86.0462 23.2206 84.9026 23.2103 83.9 23.2103H81.9769C81.1949 23.2103 80.3526 23.2206 79.4513 23.2398C78.5487 23.2398 77.6372 23.2501 76.7154 23.2706C75.7923 23.2706 74.9205 23.2808 74.1 23.3001V22.6988C74.741 22.659 75.2218 22.5783 75.5423 22.459C75.8628 22.3385 76.0731 22.0975 76.1744 21.7372C76.2936 21.3757 76.3539 20.8347 76.3539 20.1129V5.20134C76.3539 4.45903 76.2936 3.91929 76.1744 3.57826C76.1349 3.41148 76.0534 3.25759 75.9376 3.13124C75.8218 3.0049 75.6755 2.9103 75.5128 2.85647C75.1923 2.71544 74.7205 2.63596 74.1 2.61544V2.01416C75.6827 2.0728 77.2663 2.10272 78.85 2.1039C79.7321 2.1039 80.5936 2.09493 81.4346 2.07442C82.2974 2.0539 83.009 2.03467 83.5692 2.01416Z" fill="#1E1E1F"/>
<path fill-rule="evenodd" clip-rule="evenodd" d="M217.783 48.1448C217.741 47.9294 217.769 47.6487 217.871 47.3025L222.105 31.9602C221.427 32.2383 220.726 32.4549 220.009 32.6076C219.274 32.7525 218.432 32.8307 217.481 32.8461L217.329 33.2999C218.036 33.2999 218.476 33.4153 218.649 33.6461C218.821 33.8769 218.842 34.2358 218.713 34.7256L217.71 38.5064C217.647 38.324 217.539 38.1607 217.395 38.032C217.15 37.8012 216.812 37.6858 216.379 37.6858C215.515 37.6858 214.715 37.8807 213.981 38.2692C213.242 38.6729 212.577 39.1992 212.014 39.8256C211.423 40.4603 210.921 41.1729 210.523 41.9435C210.131 42.6934 209.819 43.4829 209.594 44.2987C209.389 45.0013 209.28 45.7284 209.269 46.4602C209.269 47.1512 209.378 47.7205 209.594 48.1666C209.81 48.5987 210.105 48.923 210.479 49.1384C210.854 49.341 211.272 49.441 211.733 49.441C212.438 49.441 213.073 49.2333 213.635 48.8153C214.196 48.3833 214.722 47.7205 215.213 46.8269C215.418 46.4628 215.624 46.0538 215.829 45.5999L215.687 46.1358C215.557 46.558 215.47 46.9923 215.428 47.432C215.4 47.8064 215.428 48.1243 215.515 48.3833C215.687 49.0884 216.221 49.4423 217.114 49.4423C217.445 49.4423 217.783 49.3769 218.129 49.2474C218.476 49.1179 218.799 48.8948 219.101 48.5769C219.419 48.2602 219.671 47.8076 219.858 47.2153L220.377 45.6384H219.967L219.621 46.6102C219.362 47.3461 219.117 47.8423 218.886 48.1012C218.669 48.3474 218.446 48.4692 218.215 48.4692C217.971 48.4692 217.827 48.3615 217.783 48.1448ZM216.631 42.5807C216.468 43.1076 216.291 43.6089 216.099 44.082C215.738 45.0051 215.356 45.7974 214.953 46.4602C214.564 47.1076 214.182 47.6115 213.808 47.973C213.433 48.3179 213.101 48.491 212.814 48.491C212.54 48.491 212.338 48.3615 212.209 48.1025C212.094 47.8282 212.036 47.4179 212.036 46.8705C212.036 46.0923 212.122 45.2999 212.295 44.4935C212.468 43.673 212.705 42.8871 213.008 42.1384C213.286 41.4358 213.634 40.7624 214.045 40.1282C214.435 39.523 214.845 39.0474 215.277 38.7012C215.723 38.3551 216.163 38.1833 216.595 38.1833C216.883 38.1833 217.114 38.2846 217.287 38.4858C217.408 38.6166 217.5 38.8064 217.564 39.0576L216.631 42.5807Z" fill="#1E1E1F"/>
<path d="M203.404 49.1385H200.746L203.338 39.8257C203.469 39.3936 203.512 39.0911 203.469 38.918C203.426 38.7449 203.296 38.659 203.079 38.659C202.806 38.659 202.554 38.7962 202.323 39.0693C202.092 39.3424 201.855 39.8257 201.61 40.518L201.242 41.5321H200.832L201.394 39.9116C201.596 39.3347 201.847 38.8898 202.15 38.5718C202.453 38.2411 202.785 38.0103 203.145 37.8808C203.505 37.7513 203.872 37.6859 204.246 37.6859C204.708 37.6859 205.046 37.7795 205.262 37.968C205.492 38.1552 205.637 38.4 205.695 38.7026C205.768 39.0287 205.782 39.3651 205.737 39.6962C205.709 40.0424 205.651 40.3808 205.564 40.7116L205.217 42.0667L205.305 41.8359C205.709 40.8129 206.097 39.9988 206.472 39.3936C206.862 38.7744 207.272 38.3347 207.704 38.0757C208.127 37.8184 208.614 37.6835 209.109 37.6859C209.627 37.6859 210.023 37.8372 210.297 38.1398C210.586 38.4424 210.729 38.8167 210.729 39.2642C210.729 39.6231 210.642 39.9629 210.471 40.2795C210.302 40.5767 210.065 40.8287 209.778 41.0142C209.505 41.1872 209.188 41.2731 208.828 41.2731C208.468 41.2731 208.179 41.1795 207.963 40.9924C207.762 40.8052 207.66 40.5308 207.66 40.1718C207.66 39.8539 207.733 39.5667 207.877 39.3065C208.016 39.0531 208.207 38.8323 208.438 38.659C208.669 38.4718 208.922 38.3424 209.195 38.2693C209.165 38.2396 209.128 38.2176 209.087 38.2052C209.038 38.1899 208.987 38.1826 208.936 38.1834C208.619 38.1834 208.295 38.2988 207.963 38.5295C207.632 38.7449 207.286 39.0988 206.926 39.5885C206.565 40.0783 206.199 40.7257 205.824 41.5321C205.402 42.4857 205.027 43.4595 204.7 44.4501C204.537 44.9295 204.373 45.4449 204.209 45.9975L203.404 49.1385Z" fill="#1E1E1F"/>
<path fill-rule="evenodd" clip-rule="evenodd" d="M195.329 45.7999L195.238 46.1358C195.102 46.6238 195.008 47.1227 194.958 47.6269C194.914 48.0884 194.986 48.4769 195.173 48.7935C195.462 49.2256 195.951 49.4423 196.642 49.4423C196.974 49.4423 197.305 49.3769 197.637 49.2474C197.982 49.1179 198.306 48.8948 198.609 48.5769C198.912 48.2461 199.164 47.7846 199.365 47.1948L199.906 45.6179H199.495L199.17 46.5897C198.912 47.3384 198.66 47.8358 198.415 48.0807C198.171 48.3243 197.932 48.4474 197.701 48.4474C197.514 48.4474 197.392 48.3897 197.335 48.2743C197.289 48.1275 197.275 47.9731 197.291 47.8205C197.319 47.6373 197.362 47.4567 197.421 47.2807L200.209 37.6858C199.775 37.7896 199.334 37.862 198.89 37.9025C198.444 37.9461 197.962 37.9743 197.442 37.9884L197.129 39.1448C197.116 38.8512 197.031 38.5654 196.881 38.3128C196.768 38.1158 196.604 37.9534 196.406 37.8429C196.208 37.7324 195.983 37.6781 195.756 37.6858C195.123 37.6858 194.49 37.8807 193.855 38.2692C193.181 38.693 192.576 39.2179 192.062 39.8256C191.48 40.4883 190.973 41.2127 190.549 41.9858C190.124 42.7612 189.783 43.58 189.533 44.4282C189.298 45.1913 189.174 45.9846 189.167 46.7833C189.167 47.591 189.354 48.2384 189.728 48.7282C190.103 49.2038 190.678 49.441 191.456 49.441C192.004 49.441 192.529 49.2833 193.035 48.9666C193.553 48.6487 194.042 48.123 194.504 47.3897C194.79 46.9474 195.064 46.4179 195.329 45.7999ZM193.467 47.9935C193.135 48.2961 192.84 48.4474 192.581 48.4474C192.364 48.4474 192.199 48.3397 192.083 48.123C191.982 47.8923 191.932 47.5115 191.932 46.9782C191.932 46.2141 192.018 45.4294 192.191 44.623C192.364 43.8153 192.595 43.0384 192.883 42.2897C193.186 41.5397 193.517 40.8705 193.877 40.2794C194.237 39.6897 194.597 39.2205 194.958 38.8743C195.332 38.5282 195.685 38.3564 196.017 38.3564C196.362 38.3564 196.606 38.5294 196.751 38.8743C196.895 39.1871 196.932 39.6064 196.863 40.1307L196.224 42.4923L196.297 42.1166C196.067 43.0384 195.792 43.8884 195.476 44.6666C195.2 45.3623 194.868 46.0342 194.482 46.6756C194.136 47.2371 193.797 47.6769 193.467 47.9935ZM186.262 47.3025C186.16 47.6487 186.132 47.9294 186.176 48.1448C186.218 48.3615 186.363 48.4692 186.608 48.4692C186.838 48.4692 187.062 48.3474 187.277 48.1025C187.508 47.8423 187.753 47.3461 188.012 46.6102L188.358 45.6384H188.768L188.25 47.2153C188.063 47.8064 187.81 48.2602 187.494 48.5769C187.224 48.8713 186.892 49.1006 186.52 49.2474C186.197 49.3732 185.853 49.4392 185.505 49.4423C184.613 49.4423 184.079 49.0884 183.906 48.3833C183.815 48.075 183.786 47.7517 183.821 47.432C183.849 47.0576 183.935 46.6243 184.079 46.1358L184.222 45.5999C184.015 46.0538 183.809 46.4628 183.604 46.8269C183.114 47.7205 182.588 48.3833 182.027 48.8141C181.479 49.2276 180.81 49.4484 180.124 49.4423C179.664 49.4423 179.246 49.3397 178.872 49.1397C178.486 48.9114 178.177 48.5724 177.986 48.1666C177.769 47.7205 177.662 47.1512 177.662 46.4602C177.662 45.7974 177.769 45.0756 177.986 44.2987C178.201 43.5064 178.512 42.7217 178.914 41.9435C179.313 41.1732 179.814 40.4607 180.405 39.8256C180.996 39.1769 181.651 38.6589 182.372 38.2692C183.111 37.8792 183.935 37.6788 184.771 37.6858C185.203 37.6858 185.541 37.8012 185.786 38.032C185.927 38.1564 186.033 38.3141 186.103 38.5064L187.104 34.7256C187.235 34.2358 187.213 33.8756 187.04 33.6448C186.867 33.4141 186.427 33.2987 185.722 33.2987L185.873 32.8461C186.721 32.8412 187.567 32.7615 188.401 32.6076C189.118 32.4549 189.819 32.2383 190.497 31.9602L186.262 47.3025ZM184.49 44.082C184.682 43.6076 184.86 43.1076 185.022 42.5807L185.956 39.0576C185.911 38.8473 185.816 38.6511 185.678 38.4858C185.593 38.3865 185.487 38.3077 185.367 38.2553C185.248 38.2029 185.118 38.1783 184.987 38.1833C184.555 38.1833 184.115 38.3564 183.669 38.7012C183.236 39.0474 182.826 39.523 182.437 40.1282C182.026 40.7617 181.678 41.4347 181.4 42.1371C181.093 42.8999 180.854 43.6885 180.687 44.4935C180.517 45.2744 180.429 46.0712 180.427 46.8705C180.427 47.4179 180.485 47.8282 180.6 48.1012C180.729 48.3615 180.932 48.491 181.205 48.491C181.494 48.491 181.824 48.3179 182.199 47.9717C182.574 47.6128 182.955 47.1076 183.345 46.4589C183.794 45.7009 184.177 44.9057 184.49 44.082Z" fill="#1E1E1F"/>
<path d="M165.762 49.1385H168.419L168.669 48.1616L168.656 48.2321C168.931 47.2231 169.24 46.2513 169.586 45.3141C169.922 44.4197 170.297 43.5403 170.709 42.6782C171.099 41.8705 171.487 41.1654 171.877 40.5603C172.265 39.9551 172.64 39.4872 173 39.1551C173.36 38.809 173.691 38.6372 173.994 38.6372C174.238 38.6372 174.39 38.7231 174.447 38.8962C174.507 39.0925 174.515 39.3011 174.469 39.5013C174.426 39.7355 174.368 39.9667 174.296 40.1936L172.331 46.1359C172.128 46.741 172.013 47.259 171.985 47.691C171.955 48.1231 172.035 48.4769 172.222 48.75C172.367 48.9667 172.568 49.1321 172.827 49.2474C173.101 49.3757 173.426 49.4423 173.8 49.4423C174.145 49.4423 174.491 49.3769 174.837 49.2474C175.197 49.1321 175.528 48.9154 175.831 48.5987C176.147 48.2821 176.408 47.8205 176.609 47.2154L177.149 45.6385H176.738L176.392 46.6103C176.119 47.3603 175.86 47.8564 175.615 48.1013C175.385 48.3475 175.162 48.4692 174.945 48.4692C174.714 48.4692 174.571 48.3757 174.513 48.1872C174.455 47.9872 174.491 47.691 174.621 47.3026L176.738 40.9487C176.926 40.3872 177.019 39.8616 177.019 39.3718C177.033 38.868 176.897 38.4641 176.609 38.1616C176.335 37.8449 175.845 37.6872 175.14 37.6872C174.606 37.6872 174.095 37.8026 173.605 38.0321C173.115 38.2628 172.64 38.6654 172.179 39.2423C171.718 39.8039 171.242 40.568 170.753 41.5321C170.428 42.1824 170.13 42.8458 169.859 43.5205L170.579 40.7116C170.667 40.3654 170.731 40.0192 170.774 39.6744C170.818 39.3154 170.803 38.9898 170.731 38.7013C170.662 38.4034 170.485 38.1417 170.235 37.9667C169.99 37.7795 169.629 37.6859 169.154 37.6859C168.577 37.6859 168.051 37.8449 167.576 38.1616C167.101 38.4782 166.712 39.0616 166.409 39.9116L165.847 41.5321H166.258L166.626 40.5167C166.885 39.8116 167.122 39.3282 167.338 39.0692C167.569 38.7962 167.821 38.659 168.095 38.659C168.296 38.659 168.419 38.7167 168.463 38.8321C168.519 38.9475 168.535 39.091 168.505 39.2641C168.473 39.4536 168.43 39.6411 168.376 39.8257L165.762 49.1385Z" fill="#1E1E1F"/>
<path fill-rule="evenodd" clip-rule="evenodd" d="M160.254 46.1359L160.345 45.8C160.114 46.3518 159.838 46.8835 159.519 47.3898C159.058 48.1231 158.568 48.65 158.049 48.9667C157.545 49.2833 157.019 49.441 156.472 49.441C155.694 49.441 155.118 49.2039 154.744 48.7282C154.368 48.2385 154.181 47.591 154.181 46.7833C154.181 46.0346 154.304 45.25 154.549 44.4282C154.799 43.5801 155.139 42.7613 155.564 41.9859C155.987 41.2124 156.495 40.488 157.077 39.8257C157.591 39.218 158.196 38.6931 158.871 38.2692C159.504 37.8808 160.138 37.6859 160.772 37.6859C161.262 37.6859 161.636 37.8949 161.896 38.3141C162.035 38.5282 162.118 38.8051 162.145 39.1449L162.458 37.9885C162.976 37.9744 163.459 37.9462 163.905 37.9026C164.367 37.859 164.805 37.7872 165.223 37.6859L162.436 47.2821C162.377 47.4579 162.334 47.6385 162.306 47.8218C162.29 47.9745 162.305 48.1289 162.35 48.2757C162.408 48.391 162.529 48.4487 162.717 48.4487C162.947 48.4487 163.185 48.3269 163.429 48.0821C163.674 47.8372 163.927 47.3385 164.186 46.591L164.51 45.618H164.921L164.381 47.1949C164.179 47.7859 163.927 48.2462 163.624 48.5795C163.355 48.8732 163.023 49.102 162.653 49.2487C162.336 49.3756 161.999 49.4417 161.658 49.4436C160.967 49.4436 160.477 49.2269 160.188 48.7949C160.001 48.4782 159.929 48.0898 159.973 47.6282C160.023 47.124 160.117 46.6239 160.254 46.1359ZM157.595 48.4475C157.855 48.4475 158.15 48.2962 158.482 47.9936C158.813 47.6769 159.151 47.2372 159.497 46.6757C159.842 46.1141 160.174 45.4449 160.491 44.6667C160.808 43.8885 161.082 43.0385 161.313 42.1154L161.24 42.4923L161.878 40.1321C161.946 39.6064 161.909 39.1872 161.767 38.8757C161.622 38.5295 161.377 38.3564 161.031 38.3564C160.7 38.3564 160.347 38.5295 159.973 38.8744C159.613 39.2205 159.253 39.6885 158.892 40.2795C158.532 40.8692 158.2 41.5398 157.897 42.2885C157.607 43.0472 157.376 43.8274 157.206 44.6218C157.037 45.3959 156.95 46.1858 156.947 46.9782C156.947 47.5116 156.997 47.8936 157.099 48.1231C157.214 48.3398 157.379 48.4475 157.595 48.4475Z" fill="#1E1E1F"/>
<path d="M155.679 38.4206L155.745 37.9885H153.171L154.188 34.4449C153.763 34.5498 153.329 34.6222 152.892 34.6616C152.446 34.7039 151.963 34.7334 151.445 34.7475L150.515 37.9885H148.549L148.441 38.4206H150.392L148.181 46.1359C147.994 46.7693 147.929 47.3385 147.987 47.8424C148.059 48.3321 148.26 48.7218 148.592 49.009C148.937 49.2975 149.435 49.4424 150.083 49.4424C150.818 49.4424 151.451 49.2475 151.985 48.8577C152.518 48.4693 152.936 47.8283 153.238 46.9347L153.671 45.6385H153.259L152.936 46.5244C152.676 47.2449 152.388 47.7488 152.071 48.0372C151.768 48.3257 151.465 48.4693 151.163 48.4693C151.044 48.4732 150.926 48.4498 150.817 48.401C150.709 48.3521 150.613 48.2789 150.537 48.1872C150.392 48.0013 150.378 47.7065 150.494 47.3026L153.046 38.4206H155.679ZM148.523 33.6885C148.379 34.0629 148.185 34.6116 147.94 35.3308C147.709 36.0359 147.479 36.959 147.249 38.0962H146.817C146.859 37.8949 146.888 37.6859 146.903 37.4706C146.93 37.2773 146.945 37.0824 146.946 36.8872C146.946 36.3244 146.831 35.8359 146.6 35.418C146.378 34.9797 146.023 34.6235 145.585 34.4013C145.138 34.1424 144.562 34.0129 143.856 34.0129C143.092 34.0129 142.444 34.2142 141.912 34.618C141.378 35.0065 141.112 35.6334 141.112 36.4975C141.112 37.0308 141.233 37.5359 141.478 38.0103C141.738 38.4718 142.063 38.9257 142.451 39.3718C142.855 39.8039 143.279 40.2436 143.726 40.6898C144.173 41.1218 144.591 41.5693 144.979 42.0295C145.368 42.4911 145.686 42.9808 145.931 43.4988C146.19 44.0039 146.319 44.5577 146.319 45.1629C146.319 45.927 146.132 46.5821 145.758 47.1295C145.392 47.6673 144.913 48.1174 144.353 48.4475C143.765 48.7832 143.132 49.0307 142.473 49.1821C141.839 49.3516 141.185 49.439 140.528 49.4424C139.879 49.4424 139.34 49.3911 138.908 49.2911C138.538 49.2215 138.182 49.0975 137.849 48.9231C137.566 48.768 137.285 48.6099 137.005 48.4488C136.878 48.342 136.731 48.261 136.573 48.2103C136.472 48.1597 136.362 48.13 136.25 48.1231C136.062 48.1231 135.904 48.2167 135.774 48.4052C135.604 48.6866 135.46 48.9827 135.342 49.2898H134.909C135.266 48.4111 135.562 47.509 135.796 46.5898C135.968 45.927 136.163 45.0988 136.379 44.1039H136.812C136.751 44.3901 136.701 44.6783 136.66 44.968C136.617 45.2565 136.603 45.5449 136.617 45.8334C136.66 46.8411 136.969 47.6193 137.546 48.1667C138.137 48.7142 139.001 48.9872 140.138 48.9872C141.104 48.9872 141.832 48.7859 142.322 48.3834C142.812 47.9654 143.056 47.3603 143.056 46.568C143.056 45.9629 142.941 45.4142 142.71 44.9257C142.492 44.4176 142.201 43.9442 141.846 43.5206C141.48 43.0822 141.098 42.6571 140.701 42.2462C140.304 41.8352 139.921 41.4097 139.555 40.9706C139.201 40.5342 138.904 40.0553 138.669 39.5449C138.433 38.9993 138.316 38.4098 138.324 37.8154C138.324 37.0962 138.476 36.4693 138.778 35.9359C139.083 35.4157 139.495 34.9664 139.987 34.618C140.492 34.2577 141.055 33.9871 141.651 33.818C142.232 33.6348 142.836 33.5401 143.445 33.5372C144.223 33.5372 144.864 33.6308 145.368 33.8193C145.873 34.0052 146.305 34.2295 146.665 34.4885L147.076 34.7475C147.205 34.8052 147.306 34.8334 147.378 34.8334C147.579 34.8334 147.818 34.4526 148.091 33.6885H148.523Z" fill="#1E1E1F"/>
<path fill-rule="evenodd" clip-rule="evenodd" d="M127.664 48.1448C127.621 47.9294 127.65 47.6487 127.751 47.3025L131.986 31.9602C131.308 32.2383 130.606 32.4549 129.89 32.6076C129.155 32.7525 128.313 32.8307 127.362 32.8461L127.21 33.2999C127.915 33.2999 128.356 33.4153 128.528 33.6461C128.701 33.8769 128.723 34.2358 128.594 34.7256L127.591 38.5064C127.528 38.3239 127.419 38.1607 127.276 38.032C127.031 37.8012 126.692 37.6858 126.26 37.6858C125.395 37.6858 124.596 37.8807 123.862 38.2692C123.123 38.6729 122.458 39.1992 121.895 39.8256C121.304 40.4603 120.802 41.1729 120.404 41.9435C120.011 42.6934 119.7 43.4829 119.474 44.2987C119.269 45.0012 119.16 45.7284 119.15 46.4602C119.15 47.1512 119.259 47.7205 119.474 48.1666C119.691 48.5987 119.986 48.923 120.36 49.1384C120.735 49.341 121.153 49.441 121.614 49.441C122.319 49.441 122.954 49.2333 123.515 48.8153C124.077 48.3833 124.603 47.7205 125.092 46.8269C125.297 46.4628 125.504 46.0538 125.71 45.5999L125.569 46.1358C125.438 46.5578 125.351 46.9921 125.309 47.432C125.275 47.7517 125.304 48.075 125.395 48.3833C125.568 49.0884 126.1 49.4423 126.995 49.4423C127.326 49.4423 127.664 49.3769 128.01 49.2474C128.356 49.1179 128.679 48.8948 128.982 48.5769C129.3 48.2602 129.551 47.8076 129.738 47.2153L130.258 45.6384H129.847L129.501 46.6102C129.242 47.3461 128.997 47.8423 128.767 48.1012C128.55 48.3474 128.327 48.4692 128.096 48.4692C127.853 48.4692 127.708 48.3615 127.664 48.1448ZM126.51 42.5807C126.349 43.1076 126.172 43.6089 125.978 44.082C125.619 45.0051 125.237 45.7974 124.833 46.4602C124.445 47.1076 124.063 47.6115 123.688 47.973C123.314 48.3179 122.983 48.491 122.694 48.491C122.421 48.491 122.219 48.3615 122.09 48.1025C121.974 47.8282 121.917 47.4179 121.917 46.8705C121.917 46.0923 122.003 45.2999 122.176 44.4935C122.349 43.673 122.586 42.8871 122.888 42.1384C123.167 41.4356 123.515 40.7622 123.927 40.1282C124.315 39.523 124.726 39.0474 125.158 38.7012C125.604 38.3551 126.044 38.1833 126.476 38.1833C126.764 38.1833 126.995 38.2846 127.168 38.4858C127.288 38.6166 127.381 38.8064 127.445 39.0576L126.51 42.5807Z" fill="#1E1E1F"/>
<path d="M109.908 49.1385H107.25L109.865 39.8257C109.923 39.6244 109.965 39.4372 109.994 39.2641C110.026 39.1193 110.011 38.9679 109.951 38.8321C109.908 38.7167 109.785 38.659 109.583 38.659C109.31 38.659 109.058 38.7962 108.827 39.0692C108.612 39.3282 108.373 39.8116 108.114 40.518L107.747 41.5321H107.337L107.899 39.9116C108.201 39.0616 108.591 38.4782 109.065 38.1616C109.54 37.8449 110.065 37.6872 110.642 37.6872C111.118 37.6872 111.478 37.7795 111.723 37.9667C111.974 38.1415 112.151 38.4033 112.221 38.7013C112.292 38.9898 112.306 39.3141 112.264 39.6744C112.22 40.0237 112.155 40.3701 112.069 40.7116L111.349 43.5218C111.654 42.7667 111.951 42.1051 112.242 41.5321C112.732 40.568 113.206 39.8039 113.668 39.2423C114.129 38.6654 114.604 38.2628 115.094 38.0321C115.585 37.8013 116.095 37.6859 116.628 37.6859C117.333 37.6859 117.824 37.8449 118.097 38.1616C118.386 38.4641 118.523 38.8667 118.508 39.3718C118.508 39.8616 118.415 40.3872 118.227 40.9487L116.11 47.3026C115.979 47.691 115.944 47.9872 116.001 48.1872C116.059 48.3757 116.204 48.4692 116.435 48.4692C116.65 48.4692 116.873 48.3475 117.104 48.1026C117.349 47.8564 117.608 47.359 117.882 46.6103L118.228 45.6385H118.638L118.097 47.2154C117.896 47.8205 117.636 48.2821 117.321 48.6C117.049 48.8965 116.707 49.1192 116.326 49.2474C115.995 49.3745 115.643 49.4405 115.288 49.4423C114.914 49.4423 114.59 49.3769 114.317 49.2474C114.056 49.1321 113.855 48.9654 113.712 48.75C113.524 48.4769 113.445 48.1231 113.473 47.691C113.503 47.259 113.618 46.741 113.819 46.1359L115.786 40.1936C115.858 39.9628 115.915 39.7321 115.959 39.5013C116.004 39.3011 115.997 39.0926 115.937 38.8962C115.879 38.7231 115.728 38.6372 115.483 38.6372C115.181 38.6372 114.849 38.8103 114.49 39.1551C114.129 39.4872 113.754 39.9551 113.365 40.5603C112.934 41.2421 112.545 41.9494 112.199 42.6782C111.81 43.4859 111.435 44.3628 111.074 45.3141C110.728 46.25 110.421 47.2231 110.146 48.2321L110.159 48.1616L109.908 49.1385Z" fill="#1E1E1F"/>
<path fill-rule="evenodd" clip-rule="evenodd" d="M101.833 45.8L101.744 46.1359C101.607 46.624 101.513 47.1228 101.462 47.6269C101.418 48.0884 101.49 48.4769 101.677 48.7936C101.965 49.2256 102.455 49.4423 103.147 49.4423C103.517 49.4396 103.882 49.3615 104.22 49.2127C104.558 49.0639 104.863 48.8475 105.114 48.5769C105.417 48.2461 105.668 47.7846 105.871 47.1948L106.409 45.6179H105.999L105.676 46.5897C105.415 47.3384 105.163 47.8359 104.919 48.0807C104.674 48.3243 104.436 48.4474 104.206 48.4474C104.018 48.4474 103.896 48.3897 103.838 48.2743C103.793 48.1276 103.779 47.9732 103.795 47.8205C103.824 47.6333 103.867 47.4538 103.926 47.2807L106.713 37.6859C106.279 37.7895 105.839 37.8619 105.395 37.9025C104.947 37.9461 104.465 37.9743 103.946 37.9884L103.633 39.1448C103.62 38.8513 103.535 38.5655 103.385 38.3128C103.272 38.116 103.108 37.9537 102.91 37.8432C102.712 37.7328 102.488 37.6784 102.262 37.6859C101.627 37.6859 100.992 37.8807 100.359 38.2692C99.7256 38.6589 99.1282 39.1769 98.5654 39.8256C97.9833 40.488 97.476 41.2124 97.0525 41.9859C96.6276 42.7612 96.2872 43.58 96.0372 44.4282C95.8014 45.1913 95.6779 45.9846 95.6705 46.7833C95.6705 47.591 95.8577 48.2384 96.232 48.7282C96.6064 49.2038 97.1833 49.441 97.9602 49.441C98.5077 49.441 99.0346 49.2833 99.5372 48.9666C100.056 48.6487 100.547 48.123 101.008 47.3897C101.294 46.9474 101.568 46.4179 101.833 45.8ZM99.9705 47.9936C99.6397 48.2961 99.3436 48.4474 99.0846 48.4474C98.8679 48.4474 98.7026 48.3397 98.5872 48.123C98.4872 47.8923 98.4359 47.5115 98.4359 46.9782C98.4359 46.2141 98.5231 45.4295 98.6961 44.623C98.8679 43.8154 99.0987 43.0384 99.3872 42.2897C99.6897 41.5397 100.02 40.8705 100.381 40.2795C100.741 39.6897 101.101 39.2205 101.462 38.8743C101.836 38.5282 102.188 38.3564 102.521 38.3564C102.867 38.3564 103.11 38.5295 103.255 38.8743C103.399 39.1871 103.435 39.6064 103.367 40.1307L102.728 42.4923L102.801 42.1166C102.57 43.0384 102.297 43.8884 101.981 44.6666C101.663 45.4436 101.332 46.1141 100.986 46.6756C100.64 47.2371 100.301 47.6769 99.9705 47.9936Z" fill="#1E1E1F"/>
<path d="M89.891 49.1385H87.2333L89.8256 39.8257C89.9551 39.3936 89.9987 39.0911 89.9551 38.918C89.9128 38.7449 89.7833 38.659 89.5667 38.659C89.2936 38.659 89.041 38.7962 88.8103 39.0693C88.5795 39.3424 88.3423 39.8257 88.0974 40.518L87.7295 41.5321H87.3192L87.8808 39.9116C88.0833 39.3347 88.3346 38.8898 88.6372 38.5718C88.9397 38.2411 89.2718 38.0103 89.6321 37.8808C89.991 37.7513 90.359 37.6859 90.7346 37.6859C91.1949 37.6859 91.5333 37.7795 91.7487 37.968C91.9779 38.1519 92.132 38.4131 92.1821 38.7026C92.2539 39.0052 92.2679 39.3359 92.2244 39.6962C92.1962 40.0424 92.1385 40.3808 92.0513 40.7116L91.7051 42.0667L91.7397 41.9731L91.7923 41.8359C92.1962 40.8129 92.5846 39.9988 92.959 39.3936C93.3487 38.7744 93.759 38.3347 94.191 38.0757C94.6144 37.8184 95.1008 37.6835 95.5962 37.6859C96.1141 37.6859 96.5103 37.8372 96.7846 38.1398C97.0718 38.4424 97.2167 38.8167 97.2167 39.2642C97.2167 39.6231 97.1295 39.9629 96.9564 40.2795C96.7888 40.5766 96.5517 40.8287 96.2654 41.0142C95.9798 41.1902 95.6495 41.2801 95.3141 41.2731C94.9551 41.2731 94.6667 41.1795 94.45 40.9924C94.2487 40.8052 94.1474 40.5308 94.1474 40.1718C94.1474 39.8539 94.2192 39.5667 94.3641 39.3065C94.5077 39.0475 94.6949 38.8321 94.9256 38.659C95.1564 38.4718 95.4077 38.3424 95.6821 38.2693C95.6517 38.2398 95.6148 38.2178 95.5744 38.2052C95.5457 38.1954 95.516 38.189 95.4859 38.1859C95.4646 38.1839 95.4432 38.1831 95.4218 38.1834C95.1064 38.1834 94.7808 38.2988 94.45 38.5295C94.1192 38.7449 93.7731 39.0988 93.4128 39.5885C93.0538 40.0783 92.6859 40.7257 92.3103 41.5321C91.8879 42.4856 91.513 43.4594 91.1872 44.4501C91.0244 44.9283 90.8603 45.4449 90.6962 45.9975L89.891 49.1385Z" fill="#1E1E1F"/>
<path fill-rule="evenodd" clip-rule="evenodd" d="M85.8487 34.6397C85.1282 34.1205 83.9756 33.8615 82.391 33.8615C81.9013 33.8615 81.4115 33.8692 80.9205 33.8833C80.4462 33.8974 79.8987 33.9051 79.2795 33.9051H78.1987C77.809 33.8897 77.4423 33.8833 77.0962 33.8833C76.808 33.8706 76.52 33.8561 76.2321 33.8397L76.1244 34.2718C76.6859 34.2718 77.068 34.3436 77.2692 34.4884C77.4859 34.6166 77.5859 34.8192 77.5718 35.0936C77.5427 35.4435 77.4848 35.7904 77.3987 36.1307L74.5462 46.8487C74.418 47.3666 74.2731 47.7564 74.1141 48.0154C73.9705 48.2631 73.7397 48.4482 73.4667 48.5346C73.1923 48.6205 72.8103 48.6782 72.3205 48.7064L72.2346 49.1384C72.4782 49.1256 72.7744 49.1179 73.1192 49.1179C73.4654 49.1025 73.8333 49.0961 74.2218 49.0961C75.3093 49.0631 76.3977 49.0703 77.4846 49.1179C78.0756 49.1307 78.6167 49.1397 79.1064 49.1397C80.0423 49.1397 80.9282 49.0449 81.7641 48.8577C82.5346 48.6829 83.2715 48.3841 83.9462 47.9731C84.5497 47.6135 85.0604 47.1173 85.4372 46.5243C85.8115 45.9474 85.9987 45.2718 85.9987 44.4936C85.9987 43.6141 85.6397 42.8577 84.9192 42.2243C84.2141 41.5897 83.0962 41.2154 81.5692 41.1C82.5219 40.9632 83.4475 40.679 84.3128 40.2577C85.1205 39.8397 85.7539 39.3282 86.2154 38.7231C86.68 38.1485 86.9318 37.4311 86.9282 36.6923C86.9282 35.8282 86.5705 35.1436 85.8487 34.6397ZM78.9513 41.382L77.5064 46.8487C77.4205 47.2077 77.3628 47.5256 77.3346 47.7987C77.3192 48.0731 77.391 48.282 77.55 48.4269C77.709 48.5705 78.0039 48.6423 78.4359 48.6423C79.459 48.6423 80.2949 48.4474 80.9423 48.059C81.5767 47.6859 82.0821 47.1282 82.391 46.4602C82.7077 45.7679 82.8654 44.9897 82.8654 44.1269C82.8654 43.5923 82.7718 43.1243 82.5846 42.7218C82.4198 42.3128 82.1234 41.9704 81.7423 41.7487C81.3538 41.5038 80.8346 41.382 80.1859 41.382H78.9513ZM79.0487 41.0141H80.0359C80.8564 41.0141 81.5551 40.8051 82.1308 40.3872C82.7218 39.9551 83.1692 39.3936 83.4718 38.7025C83.7869 38.0179 83.9488 37.2728 83.9462 36.5192C83.9462 35.7987 83.8026 35.2448 83.5141 34.8551C83.241 34.4666 82.7577 34.2718 82.0654 34.2718C81.5628 34.2718 81.2026 34.3731 80.9859 34.5743C80.7705 34.7615 80.5833 35.1718 80.4244 35.8051L79.0487 41.0141Z" fill="#1E1E1F"/>
</g>
</svg>
