<svg width="64" height="64" viewBox="0 0 64 64" fill="none" xmlns="http://www.w3.org/2000/svg">
<mask id="mask0_155_296" style="mask-type:luminance" maskUnits="userSpaceOnUse" x="0" y="0" width="64" height="64">
<path d="M31.9999 61.1667C35.8309 61.1716 39.625 60.4195 43.1644 58.9534C46.7037 57.4873 49.9184 55.3362 52.6237 52.6237C55.3361 49.9184 57.4872 46.7037 58.9533 43.1644C60.4194 39.6251 61.1716 35.8309 61.1666 32C61.1715 28.1691 60.4193 24.3749 58.9532 20.8356C57.4871 17.2963 55.3361 14.0816 52.6237 11.3763C49.9184 8.66379 46.7037 6.51271 43.1644 5.04663C39.625 3.58055 35.8309 2.82837 31.9999 2.83334C28.169 2.82845 24.3749 3.58066 20.8356 5.04674C17.2963 6.51282 14.0816 8.66386 11.3762 11.3763C8.6638 14.0816 6.51276 17.2963 5.04668 20.8356C3.5806 24.3749 2.82839 28.1691 2.83328 32C2.82831 35.8309 3.58049 39.6251 5.04657 43.1644C6.51265 46.7037 8.66373 49.9184 11.3762 52.6237C14.0816 55.3361 17.2963 57.4872 20.8356 58.9533C24.3749 60.4193 28.169 61.1716 31.9999 61.1667Z" fill="white" stroke="white" stroke-width="4" stroke-linejoin="round"/>
<path d="M20.3333 32L29.0833 40.75L46.5833 23.25" stroke="black" stroke-width="4" stroke-linecap="round" stroke-linejoin="round"/>
</mask>
<g mask="url(#mask0_155_296)">
<path d="M-3 -3H67V67H-3V-3Z" fill="url(#paint0_linear_155_296)"/>
</g>
<defs>
<linearGradient id="paint0_linear_155_296" x1="-3" y1="32" x2="67" y2="32" gradientUnits="userSpaceOnUse">
<stop stop-color="#0C9CC5"/>
<stop offset="1" stop-color="#7A3AF9"/>
</linearGradient>
</defs>
</svg>
