<svg width="24" height="25" viewBox="0 0 24 25" fill="none" xmlns="http://www.w3.org/2000/svg">
<path d="M20.9728 7.0509C20.5084 7.67042 19.947 8.21083 19.3103 8.65126C19.3103 8.81309 19.3103 8.97492 19.3103 9.14575C19.3154 12.0846 18.1415 14.9026 16.0518 16.968C13.962 19.0334 11.1312 20.1734 8.19405 20.1324C6.49599 20.1381 4.81967 19.7504 3.29642 18.9996C3.21428 18.9637 3.16131 18.8825 3.16162 18.7928V18.6939C3.16162 18.5648 3.26623 18.4602 3.39527 18.4602C5.06442 18.4051 6.67402 17.8264 7.99634 16.8059C6.48553 16.7754 5.12619 15.8804 4.5006 14.5042C4.46901 14.4291 4.47884 14.3428 4.52657 14.2767C4.57429 14.2106 4.653 14.1742 4.73425 14.1806C5.19342 14.2267 5.65718 14.184 6.1002 14.0547C4.43239 13.7085 3.17921 12.3239 2.99986 10.6292C2.99349 10.5479 3.02992 10.4692 3.096 10.4214C3.16207 10.3737 3.24824 10.3638 3.32338 10.3955C3.77094 10.593 4.25409 10.697 4.74324 10.7011C3.28184 9.74196 2.65061 7.91755 3.20655 6.25972C3.26394 6.09863 3.40181 5.97962 3.5695 5.94644C3.73718 5.91325 3.90996 5.97078 4.02432 6.09789C5.99639 8.19675 8.70604 9.44746 11.5819 9.58629C11.5083 9.29235 11.4721 8.99026 11.4741 8.68722C11.501 7.09822 12.4842 5.68271 13.9634 5.10337C15.4425 4.52404 17.1249 4.89553 18.223 6.04394C18.9714 5.90135 19.695 5.64995 20.3707 5.29771C20.4202 5.26681 20.483 5.26681 20.5325 5.29771C20.5634 5.34723 20.5634 5.41002 20.5325 5.45954C20.2052 6.20902 19.6523 6.83762 18.9509 7.25769C19.5651 7.18646 20.1685 7.04157 20.7482 6.82614C20.797 6.79292 20.8611 6.79292 20.9099 6.82614C20.9508 6.84484 20.9814 6.88061 20.9935 6.92392C21.0056 6.96723 20.998 7.01368 20.9728 7.0509Z" fill="white"/>
</svg>
