<svg width="18" height="19" viewBox="0 0 18 19" fill="none" xmlns="http://www.w3.org/2000/svg">
<path fill-rule="evenodd" clip-rule="evenodd" d="M2 0.333496H16C17.1046 0.333496 18 1.22893 18 2.3335V16.3335C18 17.4381 17.1046 18.3335 16 18.3335H2C0.89543 18.3335 0 17.4381 0 16.3335V2.3335C0 1.22893 0.89543 0.333496 2 0.333496ZM5 15.3335C5.27614 15.3335 5.5 15.1096 5.5 14.8335V7.8335C5.5 7.5574 5.27614 7.3335 5 7.3335H3.5C3.22386 7.3335 3 7.5574 3 7.8335V14.8335C3 15.1096 3.22386 15.3335 3.5 15.3335H5ZM4.25 6.3335C3.42157 6.3335 2.75 5.66193 2.75 4.8335C2.75 4.00507 3.42157 3.3335 4.25 3.3335C5.07843 3.3335 5.75 4.00507 5.75 4.8335C5.75 5.66193 5.07843 6.3335 4.25 6.3335ZM14.5 15.3335C14.7761 15.3335 15 15.1096 15 14.8335V10.2335C15.0325 8.6443 13.8576 7.28802 12.28 7.0935C11.177 6.99275 10.1083 7.5079 9.5 8.4335V7.8335C9.5 7.5574 9.2761 7.3335 9 7.3335H7.5C7.2239 7.3335 7 7.5574 7 7.8335V14.8335C7 15.1096 7.2239 15.3335 7.5 15.3335H9C9.2761 15.3335 9.5 15.1096 9.5 14.8335V11.0835C9.5 10.2551 10.1716 9.5835 11 9.5835C11.8284 9.5835 12.5 10.2551 12.5 11.0835V14.8335C12.5 15.1096 12.7239 15.3335 13 15.3335H14.5Z" fill="white"/>
</svg>
